<svg width="41" height="41" viewBox="0 0 41 41" fill="none" xmlns="http://www.w3.org/2000/svg">
<circle cx="20.5" cy="20.5" r="20.5" fill="white"/>
<g clip-path="url(#clip0_1_60)">
<path d="M20 8C13.372 8 8 13.373 8 20C8 26.627 13.372 32 20 32C26.628 32 32 26.627 32 20C32 13.373 26.628 8 20 8ZM29.885 19.441C27.31 19.019 24.942 18.996 22.782 19.368C22.538 18.805 22.285 18.243 22.015 17.688C24.325 16.688 26.18 15.33 27.563 13.606C28.913 15.2 29.76 17.225 29.885 19.441ZM26.043 12.159C24.838 13.713 23.175 14.942 21.057 15.839C20.041 13.978 18.879 12.163 17.569 10.401C18.348 10.204 19.16 10.087 20 10.087C22.275 10.087 24.368 10.866 26.043 12.159ZM15.527 11.166C16.858 12.908 18.038 14.704 19.064 16.547C16.634 17.262 13.733 17.629 10.38 17.652C11.072 14.817 12.981 12.459 15.527 11.166ZM10.087 20L10.1 19.744C13.949 19.739 17.269 19.296 20.05 18.422C20.283 18.897 20.506 19.374 20.72 19.854C17.34 20.911 14.555 23.076 12.383 26.334C10.951 24.615 10.087 22.407 10.087 20ZM13.916 27.81C15.885 24.722 18.398 22.712 21.514 21.783C22.442 24.203 23.123 26.693 23.557 29.243C20.208 30.534 16.604 29.909 13.916 27.81ZM25.502 28.24C25.064 25.887 24.422 23.587 23.582 21.343C25.458 21.078 27.522 21.147 29.781 21.539C29.344 24.325 27.753 26.731 25.502 28.24Z" fill="black"/>
</g>
<defs>
<clipPath id="clip0_1_60">
<rect width="24" height="24" fill="white" transform="translate(8 8)"/>
</clipPath>
</defs>
</svg>
