<svg width="41" height="41" viewBox="0 0 41 41" fill="none" xmlns="http://www.w3.org/2000/svg">
<circle cx="20.5" cy="20.5" r="20.5" fill="white"/>
<path fill-rule="evenodd" clip-rule="evenodd" d="M11 16C11 13.2386 13.2386 11 16 11H24C26.7614 11 29 13.2386 29 16V24C29 26.7614 26.7614 29 24 29H16C13.2386 29 11 26.7614 11 24V16ZM16 13C14.3431 13 13 14.3431 13 16V24C13 25.6569 14.3431 27 16 27H24C25.6569 27 27 25.6569 27 24V16C27 14.3431 25.6569 13 24 13H16ZM23.5968 15.2145C23.5968 14.6622 24.0445 14.2145 24.5968 14.2145H24.6068C25.1591 14.2145 25.6068 14.6622 25.6068 15.2145C25.6068 15.7668 25.1591 16.2145 24.6068 16.2145H24.5968C24.0445 16.2145 23.5968 15.7668 23.5968 15.2145ZM20 17C18.3431 17 17 18.3431 17 20C17 21.6569 18.3431 23 20 23C21.6569 23 23 21.6569 23 20C23 18.3431 21.6569 17 20 17ZM15 20C15 17.2386 17.2386 15 20 15C22.7614 15 25 17.2386 25 20C25 22.7614 22.7614 25 20 25C17.2386 25 15 22.7614 15 20Z" fill="black"/>
</svg>
