<svg width="41" height="41" viewBox="0 0 41 41" fill="none" xmlns="http://www.w3.org/2000/svg">
<circle cx="20.5" cy="20.5" r="20.5" fill="white"/>
<path d="M27.9 16.3944C27 21.3944 22 25.6944 20.5 26.6944C19 27.6944 17.6 26.2944 17.1 25.2944C16.6 23.9944 14.9 17.6944 14.4 17.0944C14 16.5944 12.6 17.6944 12.6 17.6944L12 16.7944C12 16.7944 14.7 13.4944 16.8 13.0944C19 12.6944 19 16.4944 19.5 18.5944C20 20.5944 20.4 21.7944 20.8 21.7944C21.2 21.7944 22.1 20.6944 23 18.8944C23.9 17.1944 23 15.5944 21.1 16.6944C21.9 12.3944 28.8 11.2944 27.9 16.3944Z" fill="black"/>
</svg>
